<svg xmlns="http://www.w3.org/2000/svg" version="1.1" xmlns:xlink="http://www.w3.org/1999/xlink" xmlns:svgjs="http://svgjs.dev/svgjs" width="1440" height="560" preserveAspectRatio="none" viewBox="0 0 1440 560"><g clip-path="url(&quot;#SvgjsClipPath1091&quot;)" fill="none"><rect width="1440" height="560" x="0" y="0" fill="#0e2a47"></rect><circle r="93.335" cx="-81.41" cy="38.92" stroke="#365aa3" stroke-opacity="0.25" stroke-width="2"></circle><circle r="93.335" cx="338.08" cy="341.45" stroke="#365aa3" stroke-opacity="0.25" stroke-width="2"></circle><circle r="93.335" cx="723.46" cy="658.31" stroke="#365aa3" stroke-opacity="0.25" stroke-width="2"></circle><circle r="140.66" cx="664.85" cy="56.04" stroke="#365aa3" stroke-opacity="0.25" stroke-width="2"></circle><circle r="72.405" cx="718.12" cy="142.47" stroke="#365aa3" stroke-opacity="0.25" stroke-width="2"></circle><circle r="140.47" cx="70.53" cy="477.3" stroke="#365aa3" stroke-opacity="0.25" stroke-width="2"></circle><circle r="87.625" cx="350.75" cy="17.85" stroke="#365aa3" stroke-opacity="0.25" stroke-width="2"></circle><circle r="91.38" cx="365.25" cy="279.66" stroke="#365aa3" stroke-opacity="0.25" stroke-width="2"></circle><circle r="108.77" cx="382.85" cy="304.95" stroke="#365aa3" stroke-opacity="0.25" stroke-width="2"></circle><circle r="182.44" cx="1030.74" cy="150.51" stroke="#365aa3" stroke-opacity="0.25" stroke-width="2"></circle><circle r="186.43" cx="650.64" cy="427.15" stroke="#365aa3" stroke-opacity="0.25" stroke-width="2"></circle><circle r="115.545" cx="1109.78" cy="210.78" stroke="#365aa3" stroke-opacity="0.25" stroke-width="2"></circle><circle r="172" cx="208.65" cy="400.49" stroke="#365aa3" stroke-opacity="0.25" stroke-width="2"></circle><circle r="72.845" cx="1195.1" cy="62.47" stroke="#365aa3" stroke-opacity="0.25" stroke-width="2"></circle><circle r="150.745" cx="751.11" cy="510.27" stroke="#365aa3" stroke-opacity="0.25" stroke-width="2"></circle><circle r="152.32" cx="703.17" cy="303.51" stroke="#365aa3" stroke-opacity="0.25" stroke-width="2"></circle><circle r="87.11" cx="4.34" cy="483.76" stroke="#365aa3" stroke-opacity="0.25" stroke-width="2"></circle></g><defs><clipPath id="SvgjsClipPath1091"><rect width="1440" height="560" x="0" y="0"></rect></clipPath></defs></svg>